<svg width="25" height="25" viewBox="0 0 25 25" fill="none" xmlns="http://www.w3.org/2000/svg">
<rect width="25" height="25" rx="2" fill="white"/>
<path d="M18.75 12.5C18.75 12.6715 18.6819 12.8359 18.5606 12.9572C18.4394 13.0784 18.2749 13.1466 18.1034 13.1466H13.1466V18.1034C13.1466 18.2749 13.0784 18.4394 12.9572 18.5606C12.8359 18.6819 12.6715 18.75 12.5 18.75C12.3285 18.75 12.1641 18.6819 12.0428 18.5606C11.9216 18.4394 11.8534 18.2749 11.8534 18.1034V13.1466H6.89655C6.72508 13.1466 6.56062 13.0784 6.43937 12.9572C6.31812 12.8359 6.25 12.6715 6.25 12.5C6.25 12.3285 6.31812 12.1641 6.43937 12.0428C6.56062 11.9216 6.72508 11.8534 6.89655 11.8534H11.8534V6.89655C11.8534 6.72508 11.9216 6.56062 12.0428 6.43937C12.1641 6.31812 12.3285 6.25 12.5 6.25C12.6715 6.25 12.8359 6.31812 12.9572 6.43937C13.0784 6.56062 13.1466 6.72508 13.1466 6.89655V11.8534H18.1034C18.2749 11.8534 18.4394 11.9216 18.5606 12.0428C18.6819 12.1641 18.75 12.3285 18.75 12.5Z" fill="black"/>
</svg>
