<svg width="25" height="25" viewBox="0 0 25 25" fill="none" xmlns="http://www.w3.org/2000/svg">
<rect width="25" height="25" rx="2" fill="url(#paint0_linear_120_55)"/>
<path d="M19.3852 8.99595C19.2363 8.25553 18.8653 7.57807 18.3217 7.05382C17.778 6.52956 17.0875 6.18341 16.3422 6.06148C15.7822 5.97221 15.2091 6.01364 14.6678 6.18253C14.1265 6.35141 13.6315 6.64319 13.2216 7.03504C13.0882 7.15913 12.9127 7.2281 12.7305 7.2281C12.5483 7.2281 12.3729 7.15913 12.2395 7.03504C11.5589 6.37679 10.6509 6.00612 9.70407 6.00008C8.75729 5.99403 7.84459 6.35309 7.15569 7.0026C6.4668 7.65211 6.0547 8.54212 6.00507 9.48763C5.95543 10.4331 6.27207 11.3614 6.88917 12.0795L11.9862 18.1535C12.0774 18.262 12.1912 18.3493 12.3198 18.4091C12.4483 18.469 12.5883 18.5 12.7301 18.5C12.8719 18.5 13.0119 18.469 13.1405 18.4091C13.269 18.3493 13.3828 18.262 13.4741 18.1535L18.571 12.0795C18.9315 11.6611 19.1921 11.1663 19.3331 10.6324C19.4742 10.0985 19.492 9.53947 19.3852 8.99767V8.99595Z" fill="white"/>
<defs>
<linearGradient id="paint0_linear_120_55" x1="0" y1="0" x2="25" y2="25" gradientUnits="userSpaceOnUse">
<stop offset="0.143702" stop-color="#461BEB"/>
<stop offset="0.888915" stop-color="#C2DDDB"/>
</linearGradient>
</defs>
</svg>
