<svg width="25" height="25" viewBox="0 0 25 25" fill="none" xmlns="http://www.w3.org/2000/svg">
<path d="M15.625 0.1675C15.815 0.0577897 16.0306 3.18885e-05 16.25 3.18885e-05C16.4694 3.18885e-05 16.685 0.0577897 16.875 0.1675L24.375 4.4975C24.565 4.60721 24.7228 4.765 24.8325 4.95502C24.9422 5.14504 25 5.36058 25 5.58V23.75C25 24.0815 24.8683 24.3995 24.6339 24.6339C24.3995 24.8683 24.0815 25 23.75 25H16.25C15.9185 25 15.6005 24.8683 15.3661 24.6339C15.1317 24.3995 15 24.0815 15 23.75V1.25C15 1.03058 15.0578 0.815036 15.1675 0.625018C15.2772 0.435 15.435 0.277208 15.625 0.1675V0.1675ZM17.5 3.415V22.5H22.5V6.30125L17.5 3.415ZM1.25 25C0.918479 25 0.600537 24.8683 0.366116 24.6339C0.131696 24.3995 0 24.0815 0 23.75V1.25C0 0.918479 0.131696 0.600537 0.366116 0.366116C0.600537 0.131696 0.918479 0 1.25 0C1.58152 0 1.89946 0.131696 2.13388 0.366116C2.3683 0.600537 2.5 0.918479 2.5 1.25V23.75C2.5 24.0815 2.3683 24.3995 2.13388 24.6339C1.89946 24.8683 1.58152 25 1.25 25ZM8.75 25C8.41848 25 8.10054 24.8683 7.86612 24.6339C7.6317 24.3995 7.5 24.0815 7.5 23.75V1.25C7.5 0.918479 7.6317 0.600537 7.86612 0.366116C8.10054 0.131696 8.41848 0 8.75 0C9.08152 0 9.39946 0.131696 9.63388 0.366116C9.8683 0.600537 10 0.918479 10 1.25V23.75C10 24.0815 9.8683 24.3995 9.63388 24.6339C9.39946 24.8683 9.08152 25 8.75 25Z" fill="white"/>
</svg>
