<svg width="30" height="30" viewBox="0 0 30 30" fill="none" xmlns="http://www.w3.org/2000/svg">
<rect width="30" height="30" rx="2" fill="white"/>
<path d="M22.5 15C22.5 15.2058 22.4183 15.4031 22.2728 15.5486C22.1273 15.6941 21.9299 15.7759 21.7241 15.7759H15.7759V21.7241C15.7759 21.9299 15.6941 22.1273 15.5486 22.2728C15.4031 22.4183 15.2058 22.5 15 22.5C14.7942 22.5 14.5969 22.4183 14.4514 22.2728C14.3059 22.1273 14.2241 21.9299 14.2241 21.7241V15.7759H8.27586C8.07009 15.7759 7.87275 15.6941 7.72724 15.5486C7.58174 15.4031 7.5 15.2058 7.5 15C7.5 14.7942 7.58174 14.5969 7.72724 14.4514C7.87275 14.3059 8.07009 14.2241 8.27586 14.2241H14.2241V8.27586C14.2241 8.07009 14.3059 7.87275 14.4514 7.72724C14.5969 7.58174 14.7942 7.5 15 7.5C15.2058 7.5 15.4031 7.58174 15.5486 7.72724C15.6941 7.87275 15.7759 8.07009 15.7759 8.27586V14.2241H21.7241C21.9299 14.2241 22.1273 14.3059 22.2728 14.4514C22.4183 14.5969 22.5 14.7942 22.5 15Z" fill="black"/>
</svg>
