<svg width="24" height="24" viewBox="0 0 24 24" fill="none" xmlns="http://www.w3.org/2000/svg">
<path d="M13.5 1.51521C13.0439 1.2519 12.5266 1.11328 12 1.11328C11.4734 1.11328 10.9561 1.2519 10.5 1.51521L3 5.8452C2.69597 6.02074 2.4435 6.27321 2.26796 6.57723C2.09243 6.88126 2.00001 7.22614 2 7.57721V21.0002C2 21.2654 2.10536 21.5198 2.29289 21.7073C2.48043 21.8948 2.73478 22.0002 3 22.0002H9C9.26522 22.0002 9.51957 21.8948 9.70711 21.7073C9.89464 21.5198 10 21.2654 10 21.0002V15.0002H14V21.0002C14 21.2654 14.1054 21.5198 14.2929 21.7073C14.4804 21.8948 14.7348 22.0002 15 22.0002H21C21.2652 22.0002 21.5196 21.8948 21.7071 21.7073C21.8946 21.5198 22 21.2654 22 21.0002V7.57721C22 7.22614 21.9076 6.88126 21.732 6.57723C21.5565 6.27321 21.304 6.02074 21 5.8452L13.5 1.51521V1.51521Z" fill="white"/>
</svg>
