<svg width="24" height="24" viewBox="0 0 24 24" fill="none" xmlns="http://www.w3.org/2000/svg">
<path d="M12.5 3.24721C12.348 3.15944 12.1755 3.11323 12 3.11323C11.8245 3.11323 11.652 3.15944 11.5 3.24721L4 7.57721V20.0002H8.5V14.0002C8.5 13.735 8.60536 13.4806 8.79289 13.2931C8.98043 13.1056 9.23478 13.0002 9.5 13.0002H14.5C14.7652 13.0002 15.0196 13.1056 15.2071 13.2931C15.3946 13.4806 15.5 13.735 15.5 14.0002V20.0002H20V7.57721L12.5 3.24721ZM10.5 1.51521C10.9561 1.2519 11.4734 1.11328 12 1.11328C12.5266 1.11328 13.0439 1.2519 13.5 1.51521L21 5.8452C21.304 6.02074 21.5565 6.27321 21.732 6.57723C21.9076 6.88126 22 7.22614 22 7.57721V21.0002C22 21.2654 21.8946 21.5198 21.7071 21.7073C21.5196 21.8948 21.2652 22.0002 21 22.0002H14.5C14.2348 22.0002 13.9804 21.8948 13.7929 21.7073C13.6054 21.5198 13.5 21.2654 13.5 21.0002V15.0002H10.5V21.0002C10.5 21.2654 10.3946 21.5198 10.2071 21.7073C10.0196 21.8948 9.76522 22.0002 9.5 22.0002H3C2.73478 22.0002 2.48043 21.8948 2.29289 21.7073C2.10536 21.5198 2 21.2654 2 21.0002V7.57721C2.00001 7.22614 2.09243 6.88126 2.26796 6.57723C2.4435 6.27321 2.69597 6.02074 3 5.8452L10.5 1.51521V1.51521Z" fill="white"/>
</svg>
