<svg width="24" height="24" viewBox="0 0 24 24" fill="none" xmlns="http://www.w3.org/2000/svg">
<path d="M3 22C2.73478 22 2.48043 21.8946 2.29289 21.7071C2.10536 21.5196 2 21.2652 2 21V3C2 2.73478 2.10536 2.48043 2.29289 2.29289C2.48043 2.10536 2.73478 2 3 2C3.26522 2 3.51957 2.10536 3.70711 2.29289C3.89464 2.48043 4 2.73478 4 3V21C4 21.2652 3.89464 21.5196 3.70711 21.7071C3.51957 21.8946 3.26522 22 3 22ZM15.5 2.134C15.348 2.04623 15.1755 2.00003 15 2.00003C14.8245 2.00002 14.652 2.04623 14.5 2.13399C14.348 2.22176 14.2218 2.34799 14.134 2.50001C14.0462 2.65202 14 2.82447 14 3V21C14 21.2652 14.1054 21.5196 14.2929 21.7071C14.4804 21.8946 14.7348 22 15 22H21C21.2652 22 21.5196 21.8946 21.7071 21.7071C21.8946 21.5196 22 21.2652 22 21V6.464C22 6.28847 21.9538 6.11603 21.866 5.96401C21.7783 5.812 21.652 5.68577 21.5 5.598L15.5 2.134V2.134ZM9 2C8.73478 2 8.48043 2.10536 8.29289 2.29289C8.10536 2.48043 8 2.73478 8 3V21C8 21.2652 8.10536 21.5196 8.29289 21.7071C8.48043 21.8946 8.73478 22 9 22C9.26522 22 9.51957 21.8946 9.70711 21.7071C9.89464 21.5196 10 21.2652 10 21V3C10 2.73478 9.89464 2.48043 9.70711 2.29289C9.51957 2.10536 9.26522 2 9 2V2Z" fill="white"/>
</svg>
