<svg width="12" height="12" viewBox="0 0 12 12" fill="none" xmlns="http://www.w3.org/2000/svg">
<g clip-path="url(#clip0_91_306)">
<path d="M11.7929 3.16466C11.6633 2.52012 11.3403 1.93037 10.8671 1.474C10.3938 1.01763 9.79273 0.716305 9.1439 0.61016C8.65642 0.532452 8.15757 0.568516 7.68633 0.715534C7.21509 0.862553 6.78422 1.11654 6.4274 1.45766C6.31125 1.56568 6.15852 1.62572 5.9999 1.62572C5.84129 1.62572 5.68856 1.56568 5.5724 1.45766C4.97998 0.884642 4.18951 0.561966 3.36532 0.556706C2.54113 0.551446 1.74661 0.864007 1.14692 1.42942C0.547223 1.99483 0.188488 2.76959 0.145279 3.59267C0.10207 4.41575 0.37771 5.22382 0.914905 5.84891L5.3519 11.1364C5.43131 11.2309 5.53043 11.3068 5.64231 11.359C5.75419 11.4111 5.87611 11.4381 5.99953 11.4381C6.12295 11.4381 6.24487 11.4111 6.35675 11.359C6.46862 11.3068 6.56774 11.2309 6.64715 11.1364L11.0842 5.84891C11.3979 5.48471 11.6248 5.05394 11.7475 4.58917C11.8703 4.12441 11.8858 3.6378 11.7929 3.16616V3.16466Z" fill="white"/>
</g>
<defs>
<clipPath id="clip0_91_306">
<rect width="12" height="12" fill="white"/>
</clipPath>
</defs>
</svg>
