<svg width="12" height="12" viewBox="0 0 12 12" fill="none" xmlns="http://www.w3.org/2000/svg">
<g clip-path="url(#clip0_91_304)">
<path d="M11.4375 6C11.4375 6.14918 11.3782 6.29226 11.2727 6.39775C11.1673 6.50324 11.0242 6.5625 10.875 6.5625H6.5625V10.875C6.5625 11.0242 6.50324 11.1673 6.39775 11.2727C6.29226 11.3782 6.14918 11.4375 6 11.4375C5.85082 11.4375 5.70774 11.3782 5.60225 11.2727C5.49676 11.1673 5.4375 11.0242 5.4375 10.875V6.5625H1.125C0.975816 6.5625 0.832742 6.50324 0.727252 6.39775C0.621763 6.29226 0.5625 6.14918 0.5625 6C0.5625 5.85082 0.621763 5.70774 0.727252 5.60225C0.832742 5.49676 0.975816 5.4375 1.125 5.4375H5.4375V1.125C5.4375 0.975816 5.49676 0.832742 5.60225 0.727252C5.70774 0.621763 5.85082 0.5625 6 0.5625C6.14918 0.5625 6.29226 0.621763 6.39775 0.727252C6.50324 0.832742 6.5625 0.975816 6.5625 1.125V5.4375H10.875C11.0242 5.4375 11.1673 5.49676 11.2727 5.60225C11.3782 5.70774 11.4375 5.85082 11.4375 6Z" fill="white"/>
</g>
<defs>
<clipPath id="clip0_91_304">
<rect width="12" height="12" fill="white"/>
</clipPath>
</defs>
</svg>
