<svg width="24" height="24" viewBox="0 0 24 24" fill="none" xmlns="http://www.w3.org/2000/svg">
<path d="M10.533 1.27932C5.35298 1.27932 1.12598 5.41932 1.12598 10.5583C1.12598 15.6973 5.35198 19.8373 10.533 19.8373C12.767 19.8373 14.823 19.0673 16.44 17.7793L20.793 22.1323C20.8852 22.2278 20.9956 22.304 21.1176 22.3564C21.2396 22.4088 21.3708 22.4364 21.5036 22.4376C21.6364 22.4387 21.768 22.4134 21.8909 22.3631C22.0138 22.3129 22.1255 22.2386 22.2194 22.1447C22.3133 22.0508 22.3875 21.9392 22.4378 21.8163C22.4881 21.6934 22.5134 21.5617 22.5122 21.4289C22.5111 21.2961 22.4835 21.1649 22.4311 21.0429C22.3787 20.9209 22.3025 20.8106 22.207 20.7183L17.863 16.3743C19.2079 14.7347 19.942 12.679 19.94 10.5583C19.94 5.41832 15.714 1.27832 10.533 1.27832V1.27932ZM3.12598 10.5583C3.12598 6.55232 6.42798 3.27832 10.533 3.27832C14.638 3.27832 17.94 6.55232 17.94 10.5583C17.94 14.5643 14.638 17.8373 10.533 17.8373C6.42798 17.8373 3.12598 14.5643 3.12598 10.5573V10.5583Z" fill="white"/>
</svg>
