<svg width="24" height="24" viewBox="0 0 24 24" fill="none" xmlns="http://www.w3.org/2000/svg">
<path d="M15.356 10.5576C15.356 13.1806 13.196 15.3076 10.533 15.3076C7.86898 15.3076 5.70898 13.1806 5.70898 10.5576C5.70898 7.93462 7.86898 5.80762 10.533 5.80762C13.197 5.80762 15.356 7.93462 15.356 10.5576Z" fill="white"/>
<path d="M1.12598 10.5583C1.12598 5.41832 5.35198 1.27832 10.533 1.27832C15.713 1.27832 19.94 5.41832 19.94 10.5583C19.942 12.679 19.2079 14.7347 17.863 16.3743L22.207 20.7183C22.3891 20.9069 22.4899 21.1595 22.4877 21.4217C22.4854 21.6839 22.3802 21.9347 22.1948 22.1201C22.0094 22.3055 21.7586 22.4107 21.4964 22.413C21.2342 22.4153 20.9816 22.3145 20.793 22.1323L16.44 17.7793C14.7615 19.1157 12.6785 19.8415 10.533 19.8373C5.35298 19.8373 1.12598 15.6973 1.12598 10.5573V10.5583ZM10.533 3.27832C6.42798 3.27832 3.12598 6.55232 3.12598 10.5583C3.12598 14.5643 6.42798 17.8373 10.533 17.8373C14.638 17.8373 17.94 14.5643 17.94 10.5573C17.94 6.55232 14.638 3.27932 10.533 3.27932V3.27832Z" fill="white"/>
</svg>
