<svg width="30" height="30" viewBox="0 0 30 30" fill="none" xmlns="http://www.w3.org/2000/svg">
<rect width="30" height="30" rx="2" fill="url(#paint0_linear_120_55)"/>
<path d="M23.5623 11.0951C23.3836 10.2066 22.9384 9.39368 22.286 8.76458C21.6336 8.13548 20.805 7.7201 19.9106 7.57378C19.2386 7.46666 18.551 7.51637 17.9014 7.71903C17.2518 7.9217 16.6578 8.27182 16.166 8.74205C16.0058 8.89095 15.7953 8.97372 15.5766 8.97372C15.358 8.97372 15.1475 8.89095 14.9873 8.74205C14.1707 7.95215 13.081 7.50734 11.9449 7.50009C10.8087 7.49284 9.7135 7.9237 8.88683 8.70312C8.06016 9.48253 7.56564 10.5505 7.50608 11.6852C7.44651 12.8198 7.82648 13.9337 8.567 14.7954L14.6834 22.0842C14.7928 22.2144 14.9295 22.3191 15.0837 22.3909C15.2379 22.4628 15.406 22.5 15.5761 22.5C15.7463 22.5 15.9143 22.4628 16.0686 22.3909C16.2228 22.3191 16.3594 22.2144 16.4689 22.0842L22.5853 14.7954C23.0178 14.2933 23.3305 13.6995 23.4997 13.0588C23.669 12.4181 23.6904 11.7474 23.5623 11.0972V11.0951Z" fill="white"/>
<defs>
<linearGradient id="paint0_linear_120_55" x1="0" y1="0" x2="30" y2="30" gradientUnits="userSpaceOnUse">
<stop offset="0.143702" stop-color="#461BEB"/>
<stop offset="0.888915" stop-color="#C2DDDB"/>
</linearGradient>
</defs>
</svg>
