<svg width="30" height="30" viewBox="0 0 30 30" fill="none" xmlns="http://www.w3.org/2000/svg">
<path d="M18.75 0.201C18.978 0.0693476 19.2367 3.82662e-05 19.5 3.82662e-05C19.7633 3.82662e-05 20.022 0.0693476 20.25 0.201L29.25 5.397C29.478 5.52865 29.6674 5.718 29.799 5.94602C29.9307 6.17404 30 6.4327 30 6.696V28.5C30 28.8978 29.842 29.2794 29.5607 29.5607C29.2794 29.842 28.8978 30 28.5 30H19.5C19.1022 30 18.7206 29.842 18.4393 29.5607C18.158 29.2794 18 28.8978 18 28.5V1.5C18 1.2367 18.0693 0.978043 18.201 0.750021C18.3326 0.522 18.522 0.332649 18.75 0.201V0.201ZM21 4.098V27H27V7.5615L21 4.098ZM1.5 30C1.10218 30 0.720644 29.842 0.43934 29.5607C0.158035 29.2794 0 28.8978 0 28.5V1.5C0 1.10218 0.158035 0.720644 0.43934 0.43934C0.720644 0.158035 1.10218 0 1.5 0C1.89782 0 2.27936 0.158035 2.56066 0.43934C2.84196 0.720644 3 1.10218 3 1.5V28.5C3 28.8978 2.84196 29.2794 2.56066 29.5607C2.27936 29.842 1.89782 30 1.5 30ZM10.5 30C10.1022 30 9.72064 29.842 9.43934 29.5607C9.15804 29.2794 9 28.8978 9 28.5V1.5C9 1.10218 9.15804 0.720644 9.43934 0.43934C9.72064 0.158035 10.1022 0 10.5 0C10.8978 0 11.2794 0.158035 11.5607 0.43934C11.842 0.720644 12 1.10218 12 1.5V28.5C12 28.8978 11.842 29.2794 11.5607 29.5607C11.2794 29.842 10.8978 30 10.5 30Z" fill="white"/>
</svg>
