<svg width="20" height="20" viewBox="0 0 20 20" fill="none" xmlns="http://www.w3.org/2000/svg">
<rect x="4.16675" y="3.33398" width="11.6668" height="13.334" fill="white"/>
<path d="M9.0113 0.416183C9.13999 0.284443 9.29372 0.17976 9.46345 0.108289C9.63318 0.0368178 9.81548 0 9.99964 0C10.1838 0 10.3661 0.0368178 10.5358 0.108289C10.7056 0.17976 10.8593 0.284443 10.988 0.416183L13.0814 2.55962L16.0772 2.52379C16.2615 2.52155 16.4443 2.5562 16.615 2.62568C16.7857 2.69517 16.9407 2.79809 17.071 2.92839C17.2013 3.05869 17.3042 3.21374 17.3737 3.38441C17.4432 3.55509 17.4778 3.73793 17.4756 3.92219L17.4398 6.91818L19.5831 9.01162C20.139 9.55331 20.139 10.4467 19.5831 10.9884L17.4398 13.0818L17.4756 16.0778C17.4778 16.2621 17.4432 16.4449 17.3737 16.6156C17.3042 16.7863 17.2013 16.9413 17.071 17.0716C16.9407 17.2019 16.7857 17.3048 16.615 17.3743C16.4443 17.4438 16.2615 17.4784 16.0772 17.4762L13.0814 17.4404L10.988 19.5838C10.8593 19.7156 10.7056 19.8202 10.5358 19.8917C10.3661 19.9632 10.1838 20 9.99964 20C9.81548 20 9.63318 19.9632 9.46345 19.8917C9.29372 19.8202 9.13999 19.7156 9.0113 19.5838L6.91793 17.4404L3.92205 17.4762C3.7378 17.4784 3.55496 17.4438 3.38429 17.3743C3.21363 17.3048 3.05858 17.2019 2.92828 17.0716C2.79799 16.9413 2.69507 16.7863 2.62559 16.6156C2.5561 16.4449 2.52146 16.2621 2.5237 16.0778L2.55953 13.0818L0.416168 10.9884C0.284433 10.8597 0.179754 10.706 0.108285 10.5362C0.0368165 10.3665 0 10.1842 0 10C0 9.81583 0.0368165 9.63352 0.108285 9.46378C0.179754 9.29405 0.284433 9.14031 0.416168 9.01162L2.55953 6.91818L2.5237 3.92219C2.52146 3.73793 2.5561 3.55509 2.62559 3.38441C2.69507 3.21374 2.79799 3.05869 2.92828 2.92839C3.05858 2.79809 3.21363 2.69517 3.38429 2.62568C3.55496 2.5562 3.7378 2.52155 3.92205 2.52379L6.91793 2.55962L9.0113 0.416183ZM14.498 8.01657C14.6461 7.85868 14.7269 7.64939 14.7234 7.43298C14.7199 7.21657 14.6323 7.01001 14.4792 6.85702C14.3261 6.70402 14.1195 6.6166 13.9031 6.61323C13.6867 6.60987 13.4775 6.69084 13.3197 6.83901L8.31045 11.8476L6.7321 10.27C6.57492 10.1182 6.36442 10.0342 6.14592 10.0361C5.92742 10.038 5.7184 10.1257 5.5639 10.2802C5.40939 10.4347 5.32174 10.6437 5.31985 10.8622C5.31795 11.0807 5.40194 11.2912 5.55374 11.4484L8.31045 14.2052L14.498 8.0174V8.01657Z" fill="#3D91F4"/>
</svg>